<?xml version="1.0" standalone="no"?>
<!DOCTYPE svg PUBLIC "-//W3C//DTD SVG 20010904//EN"
 "http://www.w3.org/TR/2001/REC-SVG-20010904/DTD/svg10.dtd">
<svg version="1.0" xmlns="http://www.w3.org/2000/svg"
 width="720.000000pt" height="720.000000pt" viewBox="0 0 720.000000 720.000000"
 preserveAspectRatio="xMidYMid meet">
<metadata>
Created by potrace 1.13, written by Peter Selinger 2001-2015
</metadata>
<g transform="translate(0.000000,720.000000) scale(0.160000,-0.160000)"
fill="#000000" stroke="none">
<path d="M2253 3896 c-14 -17 -18 -37 -16 -77 4 -94 4 -103 -2 -144 -4 -22
-15 -62 -25 -90 -10 -27 -23 -69 -30 -92 -6 -24 -15 -43 -20 -43 -6 0 -10 -4
-10 -10 0 -21 21 -9 40 23 11 17 20 49 20 70 0 21 7 48 14 60 35 54 62 251 36
267 -7 4 -9 13 -5 20 5 8 12 3 20 -14 21 -41 23 -73 9 -191 -14 -116 -7 -190
23 -249 9 -18 12 -38 7 -55 -4 -14 -6 -33 -5 -42 1 -8 -8 -24 -19 -34 -11 -10
-20 -26 -20 -35 0 -20 -24 -43 -33 -33 -4 3 -7 -1 -7 -10 0 -10 -6 -14 -14
-11 -20 8 -74 -77 -102 -160 -28 -80 -27 -76 -14 -76 6 0 10 8 11 18 1 11 3 8
8 -8 6 -20 10 -12 29 50 28 93 46 124 38 62 -4 -24 -7 -46 -8 -50 -1 -4 2 -24
7 -45 5 -26 3 -46 -5 -62 -7 -13 -10 -30 -7 -38 6 -15 -41 -98 -62 -111 -6 -4
-16 -17 -22 -29 -16 -31 58 52 77 87 17 31 32 25 36 -14 2 -17 -3 -25 -17 -28
-26 -5 -62 -39 -87 -82 -18 -32 -114 -117 -122 -109 -2 2 5 29 16 59 24 65 34
130 21 130 -19 0 -52 -47 -77 -109 -15 -36 -43 -85 -64 -110 -21 -26 -53 -68
-72 -96 -18 -27 -40 -54 -47 -58 -7 -4 -25 -20 -41 -34 l-27 -25 38 26 c45 33
49 17 6 -21 -38 -34 -52 -61 -69 -135 -7 -32 -17 -58 -21 -58 -4 0 -3 15 2 32
5 18 8 44 8 58 -2 25 -2 25 -6 2 -5 -28 -60 -101 -112 -151 -21 -20 -27 -27
-14 -17 28 24 29 17 2 -35 -19 -39 -19 -40 -1 -30 23 12 72 68 72 82 0 5 7 9
16 9 8 0 13 4 10 9 -3 5 2 15 11 22 12 10 14 10 9 2 -4 -7 -3 -13 3 -13 5 0
14 8 20 18 5 9 11 15 13 12 8 -11 106 109 112 136 8 34 41 74 77 92 14 7 44
41 68 75 51 75 157 194 166 186 3 -3 -20 -35 -51 -70 -34 -37 -71 -93 -90
-136 -53 -117 -238 -353 -276 -353 -6 0 -17 -8 -25 -17 -8 -10 -12 -12 -8 -5
3 6 3 12 -2 12 -13 0 -54 -70 -48 -80 4 -6 2 -10 -3 -10 -7 0 -42 -62 -42 -75
0 -6 91 58 150 105 25 20 61 47 80 59 32 21 31 19 -8 -16 -23 -21 -49 -50 -57
-66 l-14 -28 57 32 c31 17 68 42 83 55 14 13 34 24 46 24 21 0 103 94 103 118
0 7 14 24 30 39 23 20 30 35 30 61 0 46 38 109 118 199 l64 72 25 -29 c17 -20
25 -45 28 -77 1 -25 9 -51 16 -57 25 -19 69 -84 69 -101 0 -8 12 -21 28 -27
15 -7 45 -27 68 -45 47 -38 58 -41 51 -13 -7 26 -5 26 50 -16 58 -44 63 -49
40 -41 -16 6 -16 4 3 -23 23 -33 65 -67 119 -96 83 -46 97 -53 109 -54 24 0
12 47 -20 77 -63 59 -160 165 -155 169 2 3 31 -11 63 -31 33 -19 62 -35 67
-35 4 0 1 13 -8 30 -25 48 -17 47 28 -3 29 -33 58 -53 93 -66 l50 -18 -48 81
c-26 45 -48 84 -48 88 0 4 -33 40 -72 81 -97 98 -202 217 -215 242 -6 11 -14
47 -18 80 -5 41 -15 71 -33 95 l-25 35 27 -24 c23 -22 76 -104 76 -118 0 -3
-7 0 -15 7 -13 11 -15 8 -15 -21 0 -28 11 -44 83 -111 45 -43 108 -91 140
-108 32 -16 79 -47 105 -68 26 -21 65 -46 87 -56 45 -19 107 -86 80 -86 -26 0
-17 -15 44 -73 46 -44 66 -57 91 -57 23 0 42 -11 78 -46 56 -55 99 -76 152
-72 30 1 46 -4 67 -23 15 -13 29 -27 31 -31 7 -15 69 -46 105 -52 21 -4 54
-18 75 -32 49 -34 128 -74 145 -74 8 0 35 -11 61 -25 33 -17 61 -25 91 -23 44
1 44 2 43 35 -1 19 -5 36 -10 39 -4 3 -6 9 -3 14 3 5 -3 24 -13 42 -16 26 -25
33 -48 31 -15 -1 -34 3 -41 9 -9 7 -17 7 -28 -2 -8 -6 -23 -9 -33 -6 -22 7
-70 57 -92 96 -60 105 -72 118 -109 116 -20 -1 -42 -6 -50 -11 -11 -6 -27 6
-63 46 -26 30 -48 58 -48 62 0 5 -9 21 -20 37 -13 18 -22 52 -26 99 -4 39 -11
74 -15 77 -5 3 -9 14 -9 25 0 27 -38 84 -100 149 -28 30 -58 67 -65 81 -30 56
-145 126 -145 88 0 -7 -10 -9 -25 -5 -14 4 -25 2 -25 -4 0 -15 -16 -12 -34 6
-9 9 -16 33 -16 57 0 23 -7 53 -15 67 -8 14 -17 32 -21 40 -3 8 -12 29 -20 47
-8 17 -14 37 -14 45 0 18 -56 67 -86 74 -13 4 -27 10 -30 15 -3 5 -16 9 -29 9
-37 0 -92 83 -125 189 -8 23 -25 55 -39 70 -24 26 -101 220 -101 254 0 19 -32
77 -43 77 -14 0 -87 82 -87 99 -1 20 -30 56 -52 64 -10 4 -18 13 -18 22 0 8
-3 15 -7 16 -5 0 -22 2 -40 5 -24 3 -36 -2 -50 -20z m76 -153 c-1 -62 -2 -65
-11 -34 -9 31 -4 101 7 101 3 0 5 -30 4 -67z m141 -819 c11 -50 5 -57 -9 -9
-5 20 -22 53 -37 73 l-27 37 32 -31 c19 -18 36 -47 41 -70z m-175 -224 c4 -26
25 -60 64 -107 48 -56 56 -71 45 -81 -16 -15 -5 -51 30 -97 29 -38 38 -55 32
-55 -13 0 -85 114 -90 144 -4 19 -24 53 -45 77 -45 53 -57 74 -70 125 -5 22
-12 48 -16 59 -7 18 -6 18 18 -4 15 -13 28 -39 32 -61z m-166 -134 c-6 -13
-21 -28 -34 -34 -12 -6 -40 -25 -61 -44 -35 -29 -34 -27 10 22 27 30 52 57 54
60 3 3 2 -4 -1 -15 -5 -15 -1 -13 15 8 27 33 31 34 17 3z m-230 -65 c-18 -28
-36 -51 -42 -51 -6 0 -6 5 0 13 5 6 22 31 37 55 40 59 44 46 5 -17z m-148
-359 c-6 -10 -32 -36 -58 -57 -79 -64 -82 -61 -8 9 39 36 71 66 73 66 1 0 -2
-8 -7 -18z"/>
<path d="M2176 3835 c-3 -8 -12 -15 -21 -15 -11 0 -14 -6 -10 -23 3 -12 -1
-38 -10 -57 l-16 -35 4 37 c3 42 -5 42 -23 -2 -7 -16 -16 -30 -21 -30 -5 0 -9
-10 -9 -22 0 -13 -9 -38 -20 -55 -15 -26 -27 -33 -50 -33 -23 0 -30 -4 -30
-20 0 -11 -11 -27 -24 -35 -15 -10 -28 -33 -36 -62 -14 -57 -57 -151 -81 -178
-14 -16 -53 -175 -43 -175 2 0 13 18 24 40 11 22 23 40 25 40 8 0 -34 -81 -59
-115 -12 -16 -26 -37 -31 -45 -8 -13 -7 -13 8 -1 20 16 23 1 6 -30 -8 -16 -13
-18 -25 -8 -11 9 -20 5 -46 -22 -17 -19 -29 -26 -25 -16 3 9 2 17 -2 17 -15 0
-20 -27 -8 -39 8 -8 7 -11 -5 -11 -34 0 -107 -49 -161 -108 -49 -53 -57 -67
-57 -101 0 -21 -7 -55 -16 -76 -8 -20 -17 -53 -20 -72 -5 -44 -39 -123 -53
-123 -5 0 -17 -20 -27 -45 -25 -67 -84 -123 -84 -81 0 8 -11 27 -24 42 -23 28
-24 28 -30 6 -4 -13 -12 -19 -22 -15 -7 3 -14 0 -14 -5 0 -7 -18 -9 -45 -6
-26 2 -45 0 -45 -6 0 -5 -13 -24 -28 -42 -39 -45 -86 -134 -78 -147 10 -15 36
-14 36 2 0 7 9 18 19 24 11 7 24 28 31 47 6 20 15 36 20 36 11 0 -17 -71 -33
-85 -13 -11 -47 -69 -47 -80 0 -3 4 -4 9 0 5 3 17 -5 25 -17 14 -20 14 -24 -3
-43 -10 -11 -22 -27 -26 -35 -7 -12 -6 -13 7 -3 8 7 18 10 21 6 4 -3 -1 -12
-11 -19 -9 -7 -12 -14 -6 -14 6 0 17 7 24 15 7 8 23 15 36 15 16 0 24 6 24 17
0 9 3 14 6 10 9 -9 74 43 74 58 0 7 19 28 43 45 23 18 67 58 97 89 30 31 46
46 34 31 -34 -42 -61 -84 -69 -108 -7 -23 -6 -23 22 -9 15 8 39 27 52 41 28
30 46 34 37 9 -4 -11 2 -8 14 7 51 64 86 99 100 100 8 0 21 10 29 21 11 18 15
19 23 8 7 -12 11 -11 21 5 7 11 40 52 75 92 41 48 62 81 62 98 0 26 31 66 50
66 5 0 10 9 10 19 0 26 71 162 105 203 28 33 65 109 65 133 0 7 -8 21 -17 32
-10 10 -14 13 -9 6 6 -10 4 -12 -8 -7 -13 5 -16 0 -16 -24 0 -17 -5 -34 -11
-38 -6 -3 -19 -25 -30 -48 -13 -30 -18 -35 -16 -16 1 14 6 31 11 38 4 7 5 16
2 19 -3 3 -1 12 5 20 7 7 7 13 2 13 -6 0 -15 -10 -22 -22 -6 -13 -9 -15 -7 -5
12 39 -16 13 -44 -42 -16 -33 -35 -63 -41 -67 -6 -3 -4 4 4 17 9 13 18 37 21
52 3 16 10 35 16 42 7 8 10 33 9 55 -3 36 1 46 27 68 40 36 77 88 97 139 14
36 14 41 2 37 -20 -8 -11 40 22 121 14 33 30 82 36 109 7 27 18 51 26 54 10 3
12 -1 8 -14 -18 -60 -20 -69 -8 -58 7 6 20 43 30 82 22 84 30 100 42 81 10
-16 11 -15 36 35 16 30 21 35 26 22 4 -10 3 -15 -3 -11 -6 3 -10 -5 -10 -19 0
-54 28 -12 65 97 21 62 40 118 43 125 6 17 -25 15 -32 -3z m-541 -942 c-21
-41 -7 -43 26 -3 16 19 29 30 29 25 0 -5 -13 -23 -29 -40 -27 -28 -36 -45 -71
-145 -7 -19 -19 -48 -27 -63 -8 -15 -12 -34 -10 -41 3 -7 -12 -40 -34 -72 -21
-33 -39 -51 -39 -42 0 15 35 98 72 171 5 11 7 21 4 24 -3 3 -23 -31 -45 -75
-21 -45 -41 -79 -44 -76 -6 6 -57 -95 -57 -112 0 -7 -4 -16 -10 -19 -13 -8 -3
44 26 131 13 39 24 81 24 94 l0 23 19 -21 c21 -26 36 -29 27 -6 -3 8 -2 13 3
10 8 -5 31 95 31 140 1 25 26 58 39 50 6 -4 23 11 38 33 32 46 49 54 28 14z
m-132 -141 c-10 -15 -23 -38 -30 -52 -14 -31 -16 -16 -3 29 11 38 42 79 48 61
2 -6 -4 -23 -15 -38z m-55 -358 c-13 -26 -28 -50 -34 -51 -7 -2 2 23 20 56 36
70 48 66 14 -5z m-68 -74 c-17 -32 -21 -19 -7 26 9 30 13 34 15 17 2 -12 -2
-32 -8 -43z m-237 -31 c-9 -30 -19 -56 -23 -59 -3 -3 -12 -14 -20 -25 -14 -19
-14 -19 5 -4 41 33 58 29 20 -5 -41 -36 -68 -48 -45 -21 7 8 10 15 6 15 -4 0
4 19 16 43 12 23 22 44 23 47 1 13 28 70 31 67 3 -2 -3 -28 -13 -58z"/>
<path d="M1571 2807 c-15 -25 -19 -41 -13 -57 7 -19 10 -16 25 30 10 29 15 55
13 57 -2 2 -13 -11 -25 -30z"/>
<path d="M1962 3336 c-13 -29 -26 -96 -19 -96 7 0 40 111 34 116 -2 2 -9 -7
-15 -20z"/>
<path d="M2031 3196 c-6 -24 -17 -49 -26 -56 -8 -7 -15 -18 -15 -25 0 -7 -11
-38 -25 -69 -14 -31 -21 -56 -16 -56 5 0 19 24 29 53 11 28 34 82 51 119 34
74 35 78 22 78 -5 0 -14 -20 -20 -44z"/>
<path d="M2997 2199 c18 -19 36 -28 43 -24 16 10 -27 55 -54 55 -19 0 -17 -3
11 -31z"/>
<path d="M847 2094 c-19 -20 -40 -33 -45 -30 -21 13 -67 -41 -78 -91 -3 -18
11 -16 27 3 7 9 24 20 37 25 12 5 31 23 40 41 9 18 30 45 46 60 15 15 24 28
19 28 -5 0 -26 -16 -46 -36z"/>
<path d="M2944 2001 c3 -5 -4 -11 -15 -14 -13 -4 -20 -11 -16 -20 5 -15 -47
-52 -61 -43 -4 2 -14 1 -20 -3 -16 -10 -5 -41 14 -41 8 0 14 -7 14 -16 0 -12
-7 -14 -32 -9 l-33 6 29 -24 c18 -16 24 -27 17 -31 -6 -4 -23 -14 -39 -22 -21
-12 -23 -15 -7 -13 49 4 64 -13 23 -25 -20 -5 -21 -8 -8 -17 13 -10 13 -10 0
-6 -8 2 -24 1 -35 -3 -18 -7 -18 -9 8 -19 16 -6 37 -11 48 -11 13 0 18 -4 13
-11 -5 -9 1 -10 22 -5 23 6 27 5 17 -5 -7 -7 -31 -13 -53 -14 -27 -1 -45 -7
-55 -20 -15 -20 -23 -16 -39 20 -7 15 -48 -36 -42 -52 3 -8 -2 -13 -13 -13
-12 0 -21 10 -26 28 -3 15 -14 35 -22 45 -15 16 -17 16 -28 -5 -8 -16 -8 -25
-1 -30 7 -5 6 -8 -2 -8 -7 0 -10 -4 -7 -10 3 -5 -1 -10 -9 -10 -19 0 -21 -16
-3 -23 7 -3 5 -6 -5 -6 -10 -1 -18 -8 -18 -16 0 -8 -4 -15 -10 -15 -5 0 -10
12 -10 28 0 15 -9 38 -19 51 l-19 24 -11 -22 c-10 -18 -15 -20 -27 -10 -12 10
-14 4 -14 -35 0 -25 -4 -46 -10 -46 -5 0 -10 7 -10 15 0 30 -26 14 -44 -27
-14 -30 -21 -38 -23 -25 -5 20 -3 19 -103 18 -80 -1 -133 16 -145 46 -7 17 -8
16 -15 -2 -5 -14 -2 -22 9 -28 10 -5 7 -6 -9 -2 -14 2 -33 5 -42 5 -11 0 -20
11 -24 28 -4 15 -13 35 -20 45 -12 18 -12 18 -19 -2 -8 -27 -16 -26 -39 4 -22
29 -51 33 -64 8 -8 -14 -12 -12 -26 15 -17 32 -43 46 -32 16 3 -8 2 -13 -2
-10 -4 2 -14 -9 -21 -25 -14 -31 -31 -39 -31 -14 0 8 -4 15 -9 15 -5 0 -13 9
-16 20 -9 28 -22 25 -29 -6 -7 -25 -8 -25 -31 -10 -22 14 -24 14 -40 -10 -9
-14 -17 -34 -18 -45 -1 -18 -10 -24 -31 -20 -5 1 -6 -5 -3 -14 4 -8 4 -15 1
-15 -12 0 -32 28 -43 60 -17 51 -40 78 -50 62 -5 -8 -11 -13 -15 -13 -18 3
-26 0 -40 -15 -15 -15 -41 -11 -31 6 7 11 -16 26 -43 28 -12 0 -29 8 -38 16
-17 18 -12 20 14 8 11 -6 27 -4 42 4 25 13 25 14 3 14 -29 0 -30 16 -2 25 16
6 18 9 8 21 -7 9 -21 13 -33 10 -27 -7 -55 8 -32 17 27 10 18 27 -14 27 -16 0
-30 5 -30 10 0 6 15 10 32 10 32 0 32 0 10 16 -12 8 -20 20 -17 25 4 5 -9 25
-28 44 -32 33 -56 47 -42 25 3 -5 1 -10 -5 -10 -6 0 -8 -4 -5 -10 3 -5 0 -10
-8 -10 -10 0 -13 -7 -10 -20 4 -14 0 -20 -12 -20 -14 0 -15 -3 -5 -15 10 -12
6 -16 -22 -24 -31 -9 -31 -10 -10 -16 12 -4 22 -14 22 -21 0 -9 12 -14 33 -15
28 -1 26 -3 -13 -9 -32 -6 -54 -4 -74 6 -16 8 -31 12 -34 10 -5 -6 35 -41 48
-42 6 -1 18 -2 28 -3 13 -2 12 -4 -7 -12 -18 -7 -26 -6 -36 7 -9 13 -14 14
-19 5 -5 -7 0 -18 10 -27 17 -13 16 -13 -9 -4 -16 5 -30 10 -32 10 -8 0 8 -35
19 -42 6 -4 1 -8 -12 -8 -15 0 -26 -9 -32 -25 -11 -29 -16 -30 -36 -10 -9 8
-31 15 -50 15 -45 0 -44 18 1 22 43 4 34 24 -14 33 -52 9 -75 26 -31 23 24 -2
34 1 32 10 -1 7 5 15 13 18 8 4 15 11 15 16 0 6 -7 8 -15 4 -8 -3 -29 0 -47 6
-32 12 -32 12 -9 18 33 8 38 28 9 39 -17 7 -18 10 -5 10 20 1 20 3 6 34 -12
27 -89 54 -89 32 0 -7 -7 -16 -16 -19 -10 -4 -13 -13 -9 -26 5 -16 2 -20 -17
-20 -18 0 -20 -2 -8 -10 13 -8 12 -10 -3 -10 -10 0 -15 -4 -12 -10 3 -5 -1
-10 -10 -10 -14 0 -14 -2 -2 -14 7 -8 24 -16 36 -18 19 -2 16 -5 -14 -14 -33
-10 -40 -9 -57 8 -18 18 -19 18 -16 1 4 -22 34 -46 48 -38 6 3 10 1 10 -4 0
-6 -4 -12 -10 -12 -5 -1 -14 -3 -20 -4 -5 -1 -13 -3 -17 -4 -5 -1 3 -8 16 -15
23 -13 23 -13 2 -19 -11 -3 -19 -1 -15 4 3 5 0 9 -5 9 -6 0 -11 8 -11 17 0 13
-3 14 -12 5 -8 -8 -8 -15 3 -29 7 -10 9 -15 5 -11 -5 4 -21 0 -37 -9 -23 -14
-30 -14 -43 -4 -22 18 -20 28 7 37 22 7 21 7 -6 17 -21 7 -25 12 -17 22 8 9 6
14 -5 18 -8 4 -12 13 -9 22 3 8 1 15 -6 15 -6 0 -9 3 -6 8 2 4 -2 16 -10 27
-13 18 -14 17 -14 -9 0 -20 -4 -26 -17 -24 -11 2 -18 -3 -18 -12 0 -8 -4 -18
-9 -22 -5 -3 -11 -14 -12 -24 -2 -9 -9 -21 -16 -25 -7 -5 -8 -9 -2 -9 5 0 18
-6 28 -13 16 -12 12 -13 -33 -7 -52 7 -60 3 -39 -18 9 -9 8 -12 -5 -12 -9 0
-17 -7 -17 -15 0 -8 8 -15 17 -15 14 0 13 -3 -5 -23 -25 -26 -28 -47 -10 -65
9 -9 8 -16 -3 -29 -9 -10 -14 -26 -12 -35 4 -16 114 -17 1829 -17 l1825 0 -2
32 c-2 18 -7 37 -11 44 -5 6 -5 14 2 18 15 9 13 19 -10 45 -11 13 -26 20 -35
16 -11 -4 -15 1 -15 17 0 12 -8 33 -17 46 l-16 24 -10 -24 c-8 -20 -10 -21
-16 -7 -4 13 -10 15 -21 8 -8 -5 -11 -10 -6 -10 5 0 3 -7 -4 -15 -8 -10 -9
-15 -2 -15 6 0 9 -7 6 -15 -4 -8 -14 -15 -24 -15 -21 0 -38 20 -18 21 7 0 0 7
-17 14 -24 11 -26 14 -10 15 19 1 19 1 -2 19 -13 11 -23 24 -23 29 0 6 -7 18
-16 27 -15 15 -15 17 5 22 20 5 19 7 -10 34 -22 20 -38 28 -51 23 -11 -3 -17
-8 -14 -11 3 -4 -2 -12 -12 -19 -11 -9 -13 -13 -4 -14 10 0 10 -3 0 -14 -7 -8
-16 -12 -19 -10 -4 2 -14 -5 -24 -16 -16 -18 -16 -20 -2 -20 23 0 21 -11 -8
-39 -14 -13 -23 -26 -21 -29 3 -2 -1 -11 -9 -19 -17 -16 -35 -9 -35 13 0 8 -4
12 -10 9 -5 -3 -10 0 -10 7 0 10 -3 9 -9 -1 -8 -12 -12 -12 -25 -2 -9 7 -13
17 -10 22 3 5 1 9 -5 9 -6 0 -8 7 -4 15 3 9 -2 22 -13 30 -15 11 -16 15 -4 15
12 1 11 3 -3 14 -13 10 -15 15 -5 18 9 3 3 13 -17 30 l-29 26 -26 -27 c-14
-14 -24 -29 -23 -33 2 -3 -4 -13 -12 -21 -21 -21 -19 -25 13 -30 l27 -4 -27
-2 c-34 -1 -39 -31 -5 -32 21 0 21 -1 2 -8 -11 -5 -21 -4 -23 0 -2 5 -10 9
-17 9 -13 0 -57 53 -68 83 -8 22 -27 13 -27 -13 0 -11 -9 -24 -20 -30 -19 -10
-25 -6 -21 14 1 5 -4 13 -11 17 -10 7 -10 9 0 9 12 0 -20 56 -42 71 -10 8 -45
-22 -39 -33 2 -5 -2 -8 -9 -8 -9 0 -9 -3 2 -10 12 -8 9 -10 -12 -10 -16 0 -27
3 -27 8 4 26 -3 42 -20 42 -28 0 -35 17 -9 23 17 5 19 9 9 21 -8 10 -9 16 -1
21 17 10 12 21 -17 35 -16 7 -23 15 -15 17 17 7 15 23 -3 23 -9 0 -20 11 -25
25 -5 14 -15 25 -21 25 -7 0 -10 3 -6 6 8 8 -18 34 -33 34 -6 0 -9 -4 -6 -9z
m-40 -253 c-3 -5 -15 -6 -27 -2 -30 9 -34 14 -18 24 16 9 53 -9 45 -22z m-544
-294 c0 -12 -48 -14 -310 -14 -200 0 -310 4 -310 10 0 6 50 10 128 11 70 1
168 4 217 8 141 10 275 3 275 -15z"/>
<path d="M422 1373 c3 -15 17 -19 90 -21 47 -2 102 1 121 6 23 7 39 6 45 0 7
-7 181 -9 534 -4 619 7 856 15 837 27 -8 5 -378 9 -822 9 -765 0 -808 -1 -805
-17z"/>
<path d="M2305 1380 c-14 -6 0 -9 45 -8 36 0 75 -2 86 -6 12 -4 33 -2 48 4 15
5 25 6 22 1 -3 -4 113 -11 257 -15 336 -8 1325 -5 1272 4 l-40 7 38 2 c20 0
37 6 37 11 0 13 -1736 12 -1765 0z"/>
<path d="M2620 1309 c-96 -3 -206 -8 -245 -9 l-70 -3 90 -8 c50 -4 177 -7 283
-8 113 -1 192 -5 192 -10 0 -6 -19 -12 -42 -14 -70 -6 500 3 882 14 195 6 357
13 359 15 2 2 2 6 0 8 -2 2 -134 9 -294 15 -307 12 -862 12 -1155 0z"/>
<path d="M840 1307 c-3 -3 -96 -7 -208 -8 -140 -2 -199 -6 -192 -13 13 -13
1440 -11 1635 2 l130 9 -210 1 c-115 1 -421 5 -680 8 -258 4 -472 4 -475 1z"/>
<path d="M1045 1120 c-66 -7 993 -14 1795 -11 278 1 538 1 578 1 39 0 72 4 72
10 0 10 -2347 11 -2445 0z"/>
<path d="M1565 950 c-300 -5 -320 -6 -220 -14 143 -13 1860 -11 1900 1 71 22
-688 28 -1680 13z"/>
<path d="M2539 825 c-3 -2 -208 -5 -457 -6 -248 -1 -452 -5 -452 -9 0 -17 647
-25 1115 -13 315 8 323 19 16 22 -112 1 -207 4 -211 6 -4 2 -9 3 -11 0z"/>
<path d="M2503 763 c26 -2 67 -2 90 0 23 2 2 3 -48 3 -49 0 -68 -1 -42 -3z"/>
<path d="M2075 651 l-170 -6 250 -8 c223 -7 583 -2 594 9 2 2 -72 4 -165 4
-93 0 -207 2 -254 4 -47 1 -161 0 -255 -3z"/>
</g>
</svg>
